<svg width="106" height="48" viewBox="0 0 106 48" fill="none" xmlns="http://www.w3.org/2000/svg">
<path d="M0.000190711 15.0166C-0.0036492 14.7768 0.0505374 14.5391 0.159139 14.3192C0.267741 14.0993 0.428264 13.9024 0.630009 13.7415C0.831754 13.5806 1.07009 13.4595 1.32913 13.3862C1.58817 13.3128 1.86196 13.289 2.13226 13.3163C2.39755 13.2851 2.66734 13.3043 2.9235 13.3726C3.17966 13.441 3.41625 13.5569 3.61735 13.7125C3.81846 13.8682 3.97942 14.06 4.08942 14.275C4.19941 14.4901 4.25589 14.7234 4.25505 14.9593V15.3534C4.25621 15.37 4.25337 15.3865 4.24672 15.402C4.24006 15.4175 4.22974 15.4316 4.21644 15.4433C4.20314 15.4551 4.18717 15.4641 4.16958 15.47C4.15199 15.4759 4.13319 15.4784 4.11441 15.4774H3.12201C3.10324 15.4784 3.08444 15.4759 3.06685 15.47C3.04926 15.4641 3.03328 15.4551 3.01998 15.4433C3.00668 15.4316 2.99636 15.4175 2.98971 15.402C2.98305 15.3865 2.98021 15.37 2.98138 15.3534V15.1324C2.99498 15.0297 2.98269 14.9257 2.94537 14.8277C2.90806 14.7297 2.84664 14.6402 2.76552 14.5656C2.68439 14.4909 2.58556 14.433 2.47609 14.396C2.36662 14.3589 2.24921 14.3436 2.13226 14.3512C1.61749 14.3512 1.28978 14.6471 1.28978 15.1979V17.7121C1.28978 18.2617 1.61749 18.5576 2.13226 18.5576C2.25008 18.569 2.36929 18.5564 2.48069 18.5207C2.59209 18.485 2.69271 18.4273 2.77476 18.3519C2.85682 18.2765 2.91813 18.1855 2.95396 18.086C2.98978 17.9864 2.99916 17.8809 2.98138 17.7776V17.3835C2.98252 17.3671 2.97972 17.3506 2.97314 17.3352C2.96656 17.3198 2.95636 17.3057 2.94321 17.294C2.93006 17.2823 2.91425 17.2732 2.89682 17.2673C2.87939 17.2613 2.86073 17.2587 2.84207 17.2595H2.27157C2.2528 17.2606 2.234 17.2581 2.2164 17.2522C2.19881 17.2463 2.18284 17.2372 2.16954 17.2255C2.15624 17.2138 2.14592 17.1997 2.13927 17.1842C2.13261 17.1687 2.12977 17.1521 2.13094 17.1356V16.3486C2.12977 16.332 2.13261 16.3155 2.13927 16.2999C2.14592 16.2844 2.15624 16.2704 2.16954 16.2586C2.18284 16.2469 2.19881 16.2378 2.2164 16.232C2.234 16.2261 2.2528 16.2236 2.27157 16.2246H4.11309C4.13186 16.2236 4.15066 16.2261 4.16825 16.232C4.18584 16.2378 4.20182 16.2469 4.21512 16.2586C4.22842 16.2704 4.23874 16.2844 4.24539 16.2999C4.25205 16.3155 4.25489 16.332 4.25372 16.3486V17.9507C4.25372 19.0183 3.37409 19.5878 2.13094 19.5878C1.86119 19.6149 1.588 19.591 1.32949 19.5179C1.07099 19.4448 0.833094 19.324 0.631585 19.1637C0.430076 19.0033 0.269566 18.807 0.160708 18.5878C0.0518505 18.3686 -0.00286587 18.1315 0.000190711 17.8922V15.0166Z" fill="#0021E5"/>
<path d="M7.45522 16.1591C7.56711 16.1616 7.6784 16.1438 7.78223 16.107C7.88607 16.0702 7.98027 16.015 8.05904 15.9449C8.13781 15.8748 8.1995 15.7913 8.24032 15.6994C8.28113 15.6075 8.3002 15.5093 8.29637 15.4107V15.1569C8.30016 15.058 8.28111 14.9595 8.24038 14.8672C8.19965 14.775 8.1381 14.691 8.05944 14.6204C7.98079 14.5497 7.88667 14.4939 7.78281 14.4563C7.67895 14.4187 7.5675 14.4 7.45522 14.4015H6.74541C6.72664 14.4005 6.70784 14.403 6.69025 14.4088C6.67265 14.4147 6.65668 14.4238 6.64338 14.4355C6.63008 14.4473 6.61976 14.4613 6.61311 14.4768C6.60645 14.4923 6.60361 14.5089 6.60478 14.5255V16.0363C6.60361 16.0529 6.60645 16.0695 6.61311 16.085C6.61976 16.1005 6.63008 16.1145 6.64338 16.1263C6.65668 16.138 6.67265 16.1471 6.69025 16.1529C6.70784 16.1588 6.72664 16.1613 6.74541 16.1603L7.45522 16.1591ZM5.32447 19.4124V13.5022C5.3235 13.4858 5.32649 13.4693 5.33323 13.454C5.33997 13.4386 5.35032 13.4247 5.3636 13.4131C5.37688 13.4015 5.39278 13.3925 5.41027 13.3867C5.42777 13.3809 5.44645 13.3784 5.46511 13.3794H7.45522C7.71597 13.3546 7.97972 13.377 8.23033 13.4451C8.48095 13.5133 8.71315 13.6258 8.91273 13.7757C9.11231 13.9257 9.27508 14.11 9.39107 14.3173C9.50705 14.5247 9.57382 14.7507 9.58729 14.9815V15.5978C9.58563 15.8396 9.51856 16.0775 9.39166 16.2919C9.26475 16.5063 9.08166 16.6909 8.85758 16.8304C8.82403 16.8451 8.79682 16.869 8.78006 16.8985C8.7633 16.9281 8.75791 16.9616 8.76471 16.9941L9.47452 19.3691C9.51299 19.5001 9.42808 19.5422 9.3246 19.5422H8.47548C8.33485 19.5422 8.26984 19.5422 8.23136 19.4183L7.60514 17.3227C7.59646 17.286 7.57236 17.2535 7.53766 17.2318C7.50296 17.2101 7.46024 17.2008 7.41807 17.2057H6.74409C6.726 17.2048 6.70789 17.2071 6.69087 17.2125C6.67384 17.218 6.65826 17.2265 6.64508 17.2374C6.6319 17.2484 6.62141 17.2616 6.61426 17.2762C6.6071 17.2909 6.60342 17.3067 6.60345 17.3227V19.4183C6.60461 19.4348 6.60177 19.4514 6.59512 19.4669C6.58846 19.4824 6.57814 19.4965 6.56485 19.5082C6.55155 19.5199 6.53557 19.529 6.51798 19.5349C6.50039 19.5407 6.48159 19.5432 6.46282 19.5422H5.46511C5.44634 19.5432 5.42753 19.5407 5.40994 19.5349C5.39235 19.529 5.37638 19.5199 5.36308 19.5082C5.34978 19.4965 5.33946 19.4824 5.3328 19.4669C5.32615 19.4514 5.32331 19.4348 5.32447 19.4183" fill="#0021E5"/>
<path d="M10.6497 13.4975C10.6485 13.4809 10.6513 13.4643 10.658 13.4488C10.6647 13.4333 10.675 13.4193 10.6883 13.4075C10.7016 13.3958 10.7176 13.3867 10.7351 13.3809C10.7527 13.375 10.7715 13.3725 10.7903 13.3735H11.8C11.8187 13.3725 11.8375 13.375 11.8551 13.3809C11.8727 13.3867 11.8887 13.3958 11.902 13.4075C11.9153 13.4193 11.9256 13.4333 11.9323 13.4488C11.9389 13.4643 11.9418 13.4809 11.9406 13.4975V17.6956C11.9406 18.2628 12.2683 18.5587 12.7817 18.5587C13.2952 18.5587 13.6335 18.2628 13.6335 17.6956V13.4975C13.6324 13.481 13.6352 13.4646 13.6417 13.4491C13.6483 13.4337 13.6585 13.4197 13.6717 13.408C13.6848 13.3963 13.7006 13.3872 13.7181 13.3812C13.7355 13.3753 13.7542 13.3727 13.7728 13.3735H14.7825C14.8012 13.3725 14.82 13.375 14.8376 13.3809C14.8552 13.3867 14.8712 13.3958 14.8845 13.4075C14.8978 13.4193 14.9081 13.4333 14.9148 13.4488C14.9214 13.4643 14.9243 13.4809 14.9231 13.4975V17.8769C14.8734 18.3459 14.6269 18.7817 14.2318 19.099C13.8367 19.4162 13.3215 19.5921 12.787 19.5921C12.2526 19.5921 11.7374 19.4162 11.3423 19.099C10.9472 18.7817 10.7007 18.3459 10.651 17.8769L10.6497 13.4975Z" fill="#0021E5"/>
<path d="M18.2573 16.4874C18.3781 16.4861 18.4973 16.4625 18.6072 16.4182C18.717 16.3738 18.8151 16.3098 18.8952 16.23C18.9753 16.1503 19.0356 16.0567 19.0722 15.9552C19.1088 15.8537 19.1209 15.7466 19.1078 15.6407V15.256C19.1209 15.1498 19.1088 15.0424 19.0722 14.9405C19.0357 14.8387 18.9755 14.7446 18.8955 14.6643C18.8156 14.5841 18.7175 14.5193 18.6077 14.4742C18.4978 14.4291 18.3785 14.4046 18.2573 14.4023H17.5462C17.5275 14.4015 17.5089 14.4041 17.4915 14.4101C17.474 14.416 17.4582 14.4251 17.4451 14.4368C17.4319 14.4485 17.4217 14.4626 17.4151 14.478C17.4086 14.4934 17.4057 14.5099 17.4069 14.5263V16.3658C17.4059 16.3821 17.4089 16.3985 17.4156 16.4137C17.4222 16.429 17.4324 16.4429 17.4456 16.4545C17.4587 16.466 17.4745 16.4751 17.4918 16.4809C17.5091 16.4868 17.5277 16.4894 17.5462 16.4886L18.2573 16.4874ZM16.1266 19.4109V13.5019C16.1256 13.4855 16.1286 13.469 16.1353 13.4536C16.1421 13.4383 16.1524 13.4243 16.1657 13.4128C16.179 13.4012 16.1949 13.3922 16.2124 13.3864C16.2299 13.3806 16.2486 13.3781 16.2672 13.3791H18.2573C18.5263 13.3576 18.7974 13.3855 19.0535 13.461C19.3097 13.5364 19.5453 13.6579 19.7455 13.8177C19.9457 13.9774 20.1062 14.172 20.2168 14.3892C20.3274 14.6064 20.3857 14.8414 20.3881 15.0794V15.8267C20.3857 16.0647 20.3274 16.2997 20.2168 16.5169C20.1062 16.7341 19.9457 16.9287 19.7455 17.0885C19.5453 17.2482 19.3097 17.3697 19.0535 17.4452C18.7974 17.5206 18.5263 17.5485 18.2573 17.527H17.5462C17.5275 17.5261 17.5089 17.5288 17.4915 17.5347C17.474 17.5407 17.4582 17.5498 17.4451 17.5615C17.4319 17.5732 17.4217 17.5872 17.4151 17.6026C17.4086 17.618 17.4057 17.6345 17.4069 17.651V19.4179C17.4081 19.4345 17.4052 19.4511 17.3986 19.4666C17.3919 19.4821 17.3816 19.4961 17.3683 19.5079C17.355 19.5196 17.339 19.5287 17.3214 19.5345C17.3038 19.5404 17.285 19.5429 17.2663 19.5419H16.2659C16.2471 19.5429 16.2283 19.5404 16.2107 19.5345C16.1931 19.5287 16.1772 19.5196 16.1639 19.5079C16.1506 19.4961 16.1403 19.4821 16.1336 19.4666C16.1269 19.4511 16.1241 19.4345 16.1253 19.4179" fill="#0021E5"/>
<path d="M23.5126 18.5575C24.0366 18.5575 24.363 18.2617 24.363 17.6945V15.2119C24.363 14.6447 24.0353 14.3488 23.5126 14.3488C22.9898 14.3488 22.6714 14.6447 22.6714 15.2119V17.6922C22.6714 18.2593 22.9978 18.5552 23.5126 18.5552M21.3818 15.0306C21.4315 14.5616 21.678 14.1258 22.0731 13.8085C22.4682 13.4913 22.9834 13.3154 23.5179 13.3154C24.0523 13.3154 24.5676 13.4913 24.9627 13.8085C25.3577 14.1258 25.6043 14.5616 25.6539 15.0306V17.8723C25.6043 18.3413 25.3577 18.7771 24.9627 19.0944C24.5676 19.4116 24.0523 19.5874 23.5179 19.5874C22.9834 19.5874 22.4682 19.4116 22.0731 19.0944C21.678 18.7771 21.4315 18.3413 21.3818 17.8723V15.0306Z" fill="#0021E5"/>
<path d="M101.834 25.4055C101.827 26.1959 101.591 26.9715 101.147 27.6583C100.703 28.3451 100.067 28.9201 99.2991 29.3283C98.5313 29.7366 97.6575 29.9644 96.7613 29.9901C95.8651 30.0158 94.9763 29.8385 94.18 29.4751C93.3453 29.1144 92.6439 28.5522 92.1575 27.8539C91.6711 27.1557 91.4196 26.35 91.4323 25.5307V8.11351C91.4196 7.29419 91.6711 6.48852 92.1575 5.79024C92.6439 5.09196 93.3453 4.52978 94.18 4.1691C94.9764 3.80565 95.8653 3.62832 96.7616 3.65407C97.658 3.67981 98.5318 3.90777 99.2997 4.31615C100.068 4.72454 100.704 5.29969 101.147 5.98664C101.591 6.67358 101.828 7.44936 101.834 8.23981V25.4055ZM93.0987 0.593052C91.4278 1.24852 89.9976 2.30202 88.9691 3.63499C87.9406 4.96796 87.3546 6.52749 87.277 8.13807V25.512C87.3546 27.1225 87.9406 28.6821 88.9691 30.015C89.9976 31.348 91.4278 32.4015 93.0987 33.057C94.521 33.5587 96.0608 33.7463 97.5842 33.6036C99.1075 33.4609 100.568 32.9922 101.839 32.2382C103.11 31.4842 104.152 30.4679 104.876 29.2776C105.599 28.0874 105.981 26.7593 105.989 25.4091V8.24098C105.981 6.89074 105.599 5.56268 104.876 4.37243C104.152 3.18218 103.11 2.16582 101.839 1.41184C100.568 0.657854 99.1075 0.189104 97.5842 0.0463982C96.0608 -0.0963078 94.521 0.0913562 93.0987 0.593052ZM105.278 33.6627L91.902 40.7236C87.6117 42.9879 82.7291 44.2337 77.7299 44.3396C72.7308 44.4456 67.7859 43.4081 63.3771 41.3282L50.1468 35.0882C45.3399 32.8244 39.9745 31.6385 34.5244 31.635H34.4727L46.3232 3.69549H46.3404V0.457401C46.3401 0.347812 46.2904 0.242817 46.2024 0.165435C46.1143 0.0880533 45.9951 0.0445992 45.8707 0.0445997H30.8348C30.7105 0.0445992 30.5912 0.0880533 30.5031 0.165435C30.4151 0.242817 30.3655 0.347812 30.3651 0.457401V3.28386C30.3651 3.33817 30.3773 3.39194 30.4009 3.4421C30.4245 3.49226 30.4591 3.53782 30.5028 3.57617C30.5464 3.61452 30.5982 3.6449 30.6552 3.66557C30.7121 3.68625 30.7732 3.69681 30.8348 3.69666H41.2139C41.2896 3.69636 41.3642 3.71228 41.4313 3.74305C41.4985 3.77382 41.5562 3.81851 41.5994 3.87328C41.6426 3.92805 41.6701 3.99126 41.6794 4.05746C41.6887 4.12366 41.6797 4.19087 41.653 4.2533L29.845 32.0852C29.8115 32.1653 29.7949 32.2501 29.7959 32.3355C29.7959 32.346 29.7959 32.3553 29.7959 32.3659V34.8742C29.7963 34.9838 29.8459 35.0888 29.934 35.1662C30.022 35.2436 30.1413 35.287 30.2656 35.287H34.5271C39.2916 35.29 43.9821 36.3266 48.1846 38.3053L61.4135 44.5452C66.4578 46.9255 72.1159 48.1129 77.836 47.9916C83.556 47.8702 89.1427 46.4443 94.0513 43.853L105.772 37.6656C105.841 37.6292 105.898 37.5779 105.938 37.5164C105.978 37.455 105.999 37.3856 106 37.3148V34.0171C105.999 33.9442 105.976 33.8728 105.934 33.8101C105.892 33.7474 105.832 33.6957 105.76 33.6601C105.688 33.6245 105.606 33.6063 105.523 33.6074C105.441 33.6085 105.36 33.6288 105.289 33.6662M71.3919 33.1494H86.4292C86.5535 33.1494 86.6728 33.1059 86.7608 33.0285C86.8489 32.9511 86.8985 32.8462 86.8989 32.7366V29.9066C86.8982 29.7972 86.8484 29.6925 86.7604 29.6154C86.6724 29.5383 86.5533 29.495 86.4292 29.495H75.5499C75.4256 29.495 75.3063 29.4515 75.2183 29.3741C75.1303 29.2967 75.0806 29.1918 75.0803 29.0822V0.457401C75.0799 0.347812 75.0303 0.242817 74.9422 0.165435C74.8542 0.0880533 74.7349 0.0445992 74.6106 0.0445997H71.3946C71.2702 0.0445992 71.151 0.0880533 71.0629 0.165435C70.9749 0.242817 70.9253 0.347812 70.9249 0.457401V32.7331C70.9249 32.7874 70.9371 32.8411 70.9607 32.8913C70.9843 32.9415 71.0189 32.987 71.0626 33.0254C71.1062 33.0637 71.158 33.0941 71.215 33.1148C71.2719 33.1354 71.333 33.146 71.3946 33.1459M50.8633 33.1459H65.8873C65.9489 33.146 66.0099 33.1354 66.0669 33.1148C66.1239 33.0941 66.1757 33.0637 66.2193 33.0254C66.2629 32.987 66.2975 32.9415 66.3212 32.8913C66.3448 32.8411 66.357 32.7874 66.357 32.7331V29.9066C66.3568 29.8524 66.3445 29.7987 66.3208 29.7487C66.2971 29.6987 66.2624 29.6533 66.2188 29.615C66.1752 29.5768 66.1235 29.5465 66.0666 29.5259C66.0097 29.5053 65.9488 29.4948 65.8873 29.495H55.008C54.9465 29.495 54.8856 29.4843 54.8288 29.4635C54.772 29.4428 54.7203 29.4124 54.6768 29.3741C54.6333 29.3357 54.5988 29.2902 54.5753 29.2401C54.5518 29.1901 54.5397 29.1364 54.5397 29.0822V18.6803C54.54 18.571 54.5895 18.4663 54.6773 18.3891C54.7651 18.312 54.884 18.2687 55.008 18.2687H61.4281C61.4897 18.2688 61.5508 18.2582 61.6077 18.2376C61.6647 18.2169 61.7165 18.1865 61.7601 18.1482C61.8038 18.1098 61.8384 18.0643 61.862 18.0141C61.8856 17.9639 61.8978 17.9102 61.8978 17.8559V15.0294C61.8978 14.9751 61.8856 14.9213 61.862 14.8712C61.8384 14.821 61.8038 14.7754 61.7601 14.7371C61.7165 14.6987 61.6647 14.6684 61.6077 14.6477C61.5508 14.627 61.4897 14.6164 61.4281 14.6166H55.008C54.884 14.6166 54.7651 14.5733 54.6773 14.4961C54.5895 14.4189 54.54 14.3142 54.5397 14.205V4.1118C54.54 4.00252 54.5895 3.89782 54.6773 3.82066C54.7651 3.7435 54.884 3.70017 55.008 3.70017H65.8873C65.9489 3.70032 66.0099 3.68976 66.0669 3.66908C66.1239 3.64841 66.1757 3.61802 66.2193 3.57968C66.2629 3.54133 66.2975 3.49577 66.3212 3.44561C66.3448 3.39545 66.357 3.34168 66.357 3.28737V0.457401C66.3566 0.347812 66.3069 0.242817 66.2189 0.165435C66.1309 0.0880533 66.0116 0.0445992 65.8873 0.0445997H50.85C50.7257 0.0445992 50.6064 0.0880533 50.5184 0.165435C50.4303 0.242817 50.3807 0.347812 50.3803 0.457401V32.7331C50.3803 32.7874 50.3925 32.8411 50.4161 32.8913C50.4397 32.9415 50.4743 32.987 50.518 33.0254C50.5616 33.0637 50.6134 33.0941 50.6704 33.1148C50.7273 33.1354 50.7884 33.146 50.85 33.1459" fill="#0021E5"/>
</svg>
