<svg width="95" height="94" viewBox="0 0 95 94" fill="none" xmlns="http://www.w3.org/2000/svg" class="logo">
<path d="M37.2214 2.13303C56.632 2.13303 72.3097 17.9175 72.3097 37.2214C72.3097 56.5253 56.632 72.3097 37.2214 72.3097C17.8108 72.3097 2.13303 56.5253 2.13303 37.2214C2.13303 17.9175 17.9175 2.13303 37.2214 2.13303ZM37.2214 0C16.7443 0 0 16.6376 0 37.2214C0 57.8051 16.6376 74.4428 37.2214 74.4428C57.8051 74.4428 74.4428 57.8051 74.4428 37.2214C74.4428 16.6376 57.8051 0 37.2214 0Z" fill="currentColor"/>
<path d="M37.2214 9.59864C52.4725 9.59864 64.8441 21.9702 64.8441 37.2214C64.8441 52.4726 52.4725 64.8441 37.2214 64.8441C21.9702 64.8441 9.70529 52.4726 9.70529 37.2214C9.70529 21.9702 22.0769 9.59864 37.2214 9.59864ZM37.2214 7.46561C20.797 7.46561 7.46561 20.797 7.46561 37.2214C7.46561 53.6457 20.797 66.9772 37.2214 66.9772C53.6457 66.9772 66.9772 53.6457 66.9772 37.2214C66.9772 20.797 53.6457 7.46561 37.2214 7.46561Z" fill="currentColor"/>
<path d="M18.4507 34.7684H16.3177C16.3177 23.9966 25.0631 15.2512 35.8349 15.2512V17.3842C26.3429 17.3842 18.4507 25.1698 18.4507 34.7684Z" fill="currentColor"/>
<path d="M84.0414 93.96C82.4416 93.96 80.9485 93.3201 79.7754 92.2536L73.9095 86.2811C72.7364 85.1079 72.2031 83.6148 72.2031 82.015C72.2031 80.4153 72.843 78.9221 73.9095 77.749L78.0689 73.5896C79.2421 72.4164 80.7352 71.8831 82.335 71.8831C83.9348 71.8831 85.4279 72.523 86.6011 73.5896L92.4669 79.4554C94.8132 81.8017 94.8132 85.5345 92.4669 87.8809L88.2008 92.1469C87.1343 93.3201 85.6412 93.96 84.0414 93.96ZM82.335 74.1228C81.2685 74.1228 80.3086 74.5494 79.6687 75.296L75.4026 79.3487C74.6561 80.0953 74.2295 81.0552 74.2295 82.015C74.2295 82.9749 74.6561 84.0414 75.4026 84.6813L81.2685 90.5472C82.7616 92.0403 85.2146 92.0403 86.7077 90.5472L90.8671 86.3877C92.3602 84.8946 92.3602 82.4416 90.8671 80.9485L85.0013 75.0827C84.2547 74.5494 83.2949 74.1228 82.335 74.1228Z" fill="currentColor"/>
<path d="M68.257 78.1756C66.6572 78.1756 65.1641 77.5357 63.9909 76.4691C61.6446 74.1228 61.6446 70.39 63.9909 68.0437L68.1503 63.8843C69.3235 62.7111 70.8166 62.1778 72.4164 62.1778C74.0162 62.1778 75.5093 62.8177 76.6825 63.8843C79.0288 66.2306 79.0288 69.9634 76.6825 72.3097L72.523 76.4691C71.3499 77.5357 69.7501 78.1756 68.257 78.1756ZM72.3097 64.2042C71.2432 64.2042 70.2834 64.6308 69.6435 65.3774L65.484 69.5368C63.9909 71.0299 63.9909 73.4829 65.484 74.976C66.9772 76.4691 69.4301 76.4691 70.9233 74.976L75.0827 70.8166C76.5758 69.3235 76.5758 66.8705 75.0827 65.3774C74.3361 64.6308 73.3763 64.2042 72.3097 64.2042Z" fill="currentColor"/>
<path d="M31.1422 48.4198H21.7569V36.0482H31.1422V48.4198ZM23.8899 46.2868H29.0092V38.0746H23.8899V46.2868Z" fill="currentColor"/>
<path d="M42.234 48.4198H32.8487V29.2225H42.234V48.4198ZM34.9817 46.2868H40.101V31.3555H34.9817V46.2868Z" fill="currentColor"/>
<path d="M53.3258 48.4198H43.9404V21.7569H53.3258V48.4198ZM46.0735 46.2868H51.1927V23.8899H46.0735V46.2868Z" fill="currentColor"/>
</svg>
